<?xml version="1.0" standalone="no"?>
<!DOCTYPE svg PUBLIC "-//W3C//DTD SVG 20010904//EN"
 "http://www.w3.org/TR/2001/REC-SVG-20010904/DTD/svg10.dtd">
<svg version="1.0" xmlns="http://www.w3.org/2000/svg"
 width="700.000000pt" height="700.000000pt" viewBox="0 0 700.000000 700.000000"
 preserveAspectRatio="xMidYMid meet">
<metadata>
Created by potrace 1.14, written by Peter Selinger 2001-2017
</metadata>
<g transform="translate(0.000000,700.000000) scale(0.100000,-0.100000)"
fill="#000000" stroke="none">
<path d="M3892 4470 c-128 -18 -259 -71 -355 -144 l-47 -36 -72 49 c-145 99
-285 137 -472 129 -190 -8 -346 -77 -481 -212 -122 -123 -195 -273 -217 -451
-11 -89 -6 -181 18 -287 l6 -28 -571 0 -571 0 0 433 c0 408 -1 435 -18 450
-15 14 -41 17 -146 17 -70 0 -136 -5 -147 -10 -19 -10 -19 -32 -19 -975 0
-943 0 -965 19 -975 11 -5 78 -10 149 -10 112 0 131 2 145 18 15 17 17 62 17
440 l0 422 650 0 c720 0 698 -2 719 63 10 29 7 46 -20 128 -37 109 -49 256
-30 350 27 128 112 260 217 335 93 66 177 95 294 101 160 8 292 -41 424 -157
58 -52 72 -60 107 -60 35 0 48 7 97 54 192 183 443 221 666 103 135 -72 250
-234 280 -397 12 -62 20 -80 45 -102 40 -36 89 -37 127 -5 23 20 27 31 26 73
-2 59 -22 141 -57 226 -84 207 -285 383 -497 437 -92 23 -205 32 -286 21z"/>
<path d="M5890 4370 c-19 -19 -20 -33 -20 -450 l0 -430 -671 -2 -671 -3 -21
-26 c-12 -15 -43 -64 -70 -110 -73 -128 -139 -213 -271 -344 -161 -160 -423
-359 -628 -479 -46 -26 -48 -27 -80 -10 -61 30 -342 222 -435 297 -107 85
-209 181 -308 290 -89 97 -118 106 -170 54 -66 -66 -46 -109 140 -292 134
-133 287 -253 497 -392 172 -114 267 -163 313 -163 17 0 50 10 75 21 67 30
370 236 491 333 223 179 429 399 524 561 21 37 44 69 49 70 6 2 287 6 624 9
l612 5 0 -424 c0 -412 1 -426 20 -445 18 -18 33 -20 148 -20 112 0 131 2 145
18 16 17 17 99 17 970 l0 951 -22 15 c-17 12 -50 16 -145 16 -110 0 -125 -2
-143 -20z"/>
<path d="M416 4204 c-14 -14 -16 -100 -16 -803 0 -721 1 -790 17 -802 12 -10
51 -14 148 -14 97 0 136 4 148 14 16 12 17 81 17 802 0 703 -2 789 -16 803
-23 23 -275 23 -298 0z"/>
<path d="M6290 4200 c-20 -20 -20 -33 -20 -793 0 -683 2 -775 16 -795 14 -21
22 -22 149 -22 108 0 137 3 149 16 14 14 16 100 16 798 0 746 -1 784 -18 799
-15 14 -41 17 -145 17 -114 0 -129 -2 -147 -20z"/>
<path d="M12 4018 c-17 -17 -17 -1209 0 -1226 8 -8 57 -12 153 -12 96 0 145 4
153 12 17 17 17 1209 0 1226 -8 8 -57 12 -153 12 -96 0 -145 -4 -153 -12z"/>
<path d="M6686 4014 c-14 -14 -16 -83 -16 -609 0 -526 2 -595 16 -609 23 -23
275 -23 298 0 14 14 16 83 16 609 0 526 -2 595 -16 609 -23 23 -275 23 -298 0z"/>
</g>
</svg>
